<svg width="368" height="218" viewBox="0 0 368 218" fill="none" xmlns="http://www.w3.org/2000/svg">
<rect width="368" height="218" fill="white"/>
<path d="M80.4598 117.751C80.3044 117.872 80.153 117.99 80.0058 118.105C79.9667 118.027 80.1277 117.907 80.4598 117.751C86.8089 112.83 99.7108 103.934 104.006 105.105H105.506L110.506 109.605C101.182 111.861 83.5267 116.315 80.4598 117.751Z" fill="#B2DCEE"/>
<path d="M31 54V76.5V77L36 76.8455V58.5C62.3333 58.1667 114.9 57.7 114.5 58.5C114 59.5 105.5 67 101 70C79 86.8 58.5 90.6667 51 90.5V98H51.5C53.1667 98.1667 58.3 98.4 65.5 98C74.5 97.5 74 97 90 91.5C106 86 117.697 71.2495 116.5 76.5C114.914 83.4575 115.183 95.1776 115.5 97L123.5 99.5C124.527 90.9364 126.406 85.5911 133.5 74.5V97V132H138.5V131V54H137H31Z" fill="#008E22"/>
<path d="M138.5 154V131.5V131L133.5 131.154V149.5C107.167 149.833 54.6 150.3 55 149.5C55.5 148.5 64 141 68.5 138C90.5 121.2 111 117.333 118.5 117.5V110H118C116.333 109.833 111.2 109.6 104 110C95 110.5 95.5 111 79.5 116.5C63.5 122 51.8033 136.751 53 131.5C54.5857 124.543 54.3166 112.822 54 111L46 108.5C44.9729 117.064 43.0938 122.409 36 133.5V111L36 76H31V77L31 154H32.5H138.5Z" fill="#005D80"/>
<path d="M58 78.5C68.4 78.5 84.3333 76.8333 91 76C91.1667 76 91.4 76.2 91 77C90.5 78 80.5 82.5 78.5 83.5C76.9 84.3 64.1667 84.8333 58 85V78.5Z" fill="#B5EEB9"/>
<path d="M199.45 114.4C191.423 114.4 185.077 111.903 180.41 106.91C175.79 101.87 173.48 95.5467 173.48 87.94C173.48 80.2867 176 73.9633 181.04 68.97C186.08 63.9767 192.52 61.48 200.36 61.48C206.567 61.48 212.073 62.25 216.88 63.79C217.113 63.93 217.23 64.1167 217.23 64.35C217.23 64.5367 217.16 65.26 217.02 66.52C216.413 70.86 216.087 74.0333 216.04 76.04C215.34 76.18 214.85 76.25 214.57 76.25C214.29 76.25 213.87 76.1567 213.31 75.97C212.89 72.75 212.47 70.3467 212.05 68.76C210.837 67.4533 209.133 66.3333 206.94 65.4C204.747 64.4667 202.25 64 199.45 64C194.13 64 189.72 65.8667 186.22 69.6C182.767 73.3333 181.04 78.4433 181.04 84.93C181.04 89.5033 181.787 93.7967 183.28 97.81C184.82 101.823 187.083 105.137 190.07 107.75C193.103 110.317 196.697 111.6 200.85 111.6C205.003 111.6 208.69 110.48 211.91 108.24C212.797 106.747 213.893 104.25 215.2 100.75C216.32 100.75 217.183 100.983 217.79 101.45C217.137 104.81 216.647 108.193 216.32 111.6C216.273 112.113 215.97 112.417 215.41 112.51C210.93 113.77 205.61 114.4 199.45 114.4Z" fill="#005D80"/>
<path d="M229.43 62.39L238.53 62.6L247.49 62.39C247.583 62.67 247.63 63.02 247.63 63.44L247.49 64.56C245.437 64.56 243.873 64.63 242.8 64.77C242.007 64.8633 241.61 70.1133 241.61 80.52V91.93C241.61 96.3633 241.703 100.61 241.89 104.67C242.123 108.73 242.403 110.783 242.73 110.83C243.943 110.97 245.997 111.04 248.89 111.04C248.983 111.367 249.03 111.74 249.03 112.16C249.03 112.58 248.983 112.93 248.89 113.21L240 113C235.1 113 231.087 113.187 227.96 113.56C227.727 113.327 227.61 112.93 227.61 112.37L227.68 111.81C230.713 111.157 232.58 110.387 233.28 109.5C233.7 108.94 233.98 108.45 234.12 108.03C234.26 107.61 234.377 106.957 234.47 106.07C235.03 102.43 235.31 96.5267 235.31 88.36V80.52C235.31 70.1133 234.913 64.8633 234.12 64.77C233.047 64.63 231.483 64.56 229.43 64.56C229.337 64.2333 229.29 63.86 229.29 63.44C229.29 63.02 229.337 62.67 229.43 62.39Z" fill="#008E22"/>
<path d="M286.65 92.56L297.85 92.77C300.043 92.77 302.19 92.5833 304.29 92.21C304.477 92.6767 304.57 93.0733 304.57 93.4L304.43 94.24C302.657 94.9867 301.677 96.5033 301.49 98.79C301.163 101.963 301 106.443 301 112.23C298.2 112.23 294.957 112.58 291.27 113.28C287.583 114.027 284.643 114.4 282.45 114.4C274.423 114.4 268.077 111.903 263.41 106.91C258.79 101.87 256.48 95.5467 256.48 87.94C256.48 80.2867 259 73.9633 264.04 68.97C269.08 63.9767 275.52 61.48 283.36 61.48C289.707 61.48 295.33 62.1567 300.23 63.51C300.557 63.6033 300.72 63.7667 300.72 64C300.72 64.2333 300.697 64.5367 300.65 64.91C300.65 65.2833 300.603 65.82 300.51 66.52C300.463 67.1733 300.417 67.92 300.37 68.76C300.277 70.5333 300.23 72.8667 300.23 75.76C299.903 75.9467 299.46 76.04 298.9 76.04C298.34 76.04 297.897 75.97 297.57 75.83C296.73 72.05 296.123 69.6933 295.75 68.76C292.063 65.5867 287.583 64 282.31 64C277.083 64 272.72 65.8667 269.22 69.6C265.767 73.3333 264.04 78.4433 264.04 84.93C264.04 89.5033 264.787 93.7967 266.28 97.81C267.82 101.823 270.083 105.137 273.07 107.75C276.103 110.317 279.603 111.6 283.57 111.6C287.583 111.6 291.41 110.76 295.05 109.08V104.81C295.05 101.31 294.91 98.1367 294.63 95.29C292.25 95.01 289.59 94.87 286.65 94.87C286.463 94.5433 286.37 94.17 286.37 93.75L286.65 92.56Z" fill="#008E22"/>
<path d="M160.94 153H153.2V151.44L155.72 150.87V133.74L153.2 133.14V131.58H160.94V133.14L158.42 133.74V150.87L160.94 151.44V153ZM171.406 153H163.666V151.44L166.186 150.87V133.74L163.666 133.14V131.58H171.406V133.14L168.886 133.74V150.87L171.406 151.44V153ZM182.622 153H179.922V133.95H173.232V131.58H189.282V133.95H182.622V153ZM206.815 131.58C208.595 131.58 210.055 131.81 211.195 132.27C212.355 132.71 213.215 133.38 213.775 134.28C214.335 135.18 214.615 136.31 214.615 137.67C214.615 138.81 214.405 139.76 213.985 140.52C213.565 141.28 213.025 141.89 212.365 142.35C211.725 142.79 211.045 143.14 210.325 143.4L216.205 153H213.055L207.865 144.15H203.605V153H200.905V131.58H206.815ZM206.665 133.92H203.605V141.87H206.815C207.975 141.87 208.925 141.72 209.665 141.42C210.405 141.1 210.945 140.64 211.285 140.04C211.645 139.44 211.825 138.69 211.825 137.79C211.825 136.85 211.635 136.1 211.255 135.54C210.895 134.98 210.335 134.57 209.575 134.31C208.815 134.05 207.845 133.92 206.665 133.92ZM238.557 142.26C238.557 143.92 238.347 145.43 237.927 146.79C237.507 148.13 236.877 149.29 236.037 150.27C235.217 151.25 234.187 152 232.947 152.52C231.727 153.04 230.307 153.3 228.687 153.3C227.007 153.3 225.547 153.04 224.307 152.52C223.067 151.98 222.037 151.23 221.217 150.27C220.397 149.29 219.787 148.12 219.387 146.76C218.987 145.4 218.787 143.89 218.787 142.23C218.787 140.03 219.147 138.11 219.867 136.47C220.587 134.83 221.677 133.55 223.137 132.63C224.617 131.71 226.477 131.25 228.717 131.25C230.857 131.25 232.657 131.71 234.117 132.63C235.577 133.53 236.677 134.81 237.417 136.47C238.177 138.11 238.557 140.04 238.557 142.26ZM221.637 142.26C221.637 144.06 221.887 145.61 222.387 146.91C222.887 148.21 223.657 149.21 224.697 149.91C225.757 150.61 227.087 150.96 228.687 150.96C230.307 150.96 231.627 150.61 232.647 149.91C233.687 149.21 234.457 148.21 234.957 146.91C235.457 145.61 235.707 144.06 235.707 142.26C235.707 139.56 235.147 137.45 234.027 135.93C232.907 134.39 231.137 133.62 228.717 133.62C227.097 133.62 225.757 133.97 224.697 134.67C223.657 135.35 222.887 136.34 222.387 137.64C221.887 138.92 221.637 140.46 221.637 142.26ZM262.295 142.26C262.295 143.92 262.085 145.43 261.665 146.79C261.245 148.13 260.615 149.29 259.775 150.27C258.955 151.25 257.925 152 256.685 152.52C255.465 153.04 254.045 153.3 252.425 153.3C250.745 153.3 249.285 153.04 248.045 152.52C246.805 151.98 245.775 151.23 244.955 150.27C244.135 149.29 243.525 148.12 243.125 146.76C242.725 145.4 242.525 143.89 242.525 142.23C242.525 140.03 242.885 138.11 243.605 136.47C244.325 134.83 245.415 133.55 246.875 132.63C248.355 131.71 250.215 131.25 252.455 131.25C254.595 131.25 256.395 131.71 257.855 132.63C259.315 133.53 260.415 134.81 261.155 136.47C261.915 138.11 262.295 140.04 262.295 142.26ZM245.375 142.26C245.375 144.06 245.625 145.61 246.125 146.91C246.625 148.21 247.395 149.21 248.435 149.91C249.495 150.61 250.825 150.96 252.425 150.96C254.045 150.96 255.365 150.61 256.385 149.91C257.425 149.21 258.195 148.21 258.695 146.91C259.195 145.61 259.445 144.06 259.445 142.26C259.445 139.56 258.885 137.45 257.765 135.93C256.645 134.39 254.875 133.62 252.455 133.62C250.835 133.62 249.495 133.97 248.435 134.67C247.395 135.35 246.625 136.34 246.125 137.64C245.625 138.92 245.375 140.46 245.375 142.26ZM273.252 131.58C275.032 131.58 276.492 131.81 277.632 132.27C278.792 132.71 279.652 133.38 280.212 134.28C280.772 135.18 281.052 136.31 281.052 137.67C281.052 138.81 280.842 139.76 280.422 140.52C280.002 141.28 279.462 141.89 278.802 142.35C278.162 142.79 277.482 143.14 276.762 143.4L282.642 153H279.492L274.302 144.15H270.042V153H267.342V131.58H273.252ZM273.102 133.92H270.042V141.87H273.252C274.412 141.87 275.362 141.72 276.102 141.42C276.842 141.1 277.382 140.64 277.722 140.04C278.082 139.44 278.262 138.69 278.262 137.79C278.262 136.85 278.072 136.1 277.692 135.54C277.332 134.98 276.772 134.57 276.012 134.31C275.252 134.05 274.282 133.92 273.102 133.92ZM301.964 153H298.784L291.194 142.77L289.004 144.69V153H286.304V131.58H289.004V142.14C289.604 141.46 290.214 140.78 290.834 140.1C291.454 139.42 292.074 138.74 292.694 138.06L298.484 131.58H301.634L293.144 140.91L301.964 153ZM317.148 153H305.178V131.58H317.148V133.95H307.878V140.64H316.608V142.98H307.878V150.63H317.148V153ZM334.118 153H322.148V131.58H334.118V133.95H324.848V140.64H333.578V142.98H324.848V150.63H334.118V153Z" fill="#005D80"/>
</svg>
