<svg width="17" height="24" viewBox="0 0 17 24" fill="none" xmlns="http://www.w3.org/2000/svg">
<path d="M16.0622 21.316C16.0621 21.6975 16.2299 22.106 16.0622 22.4332C15.8944 22.7604 15.3499 23.3703 15.0622 23.5503C14.7744 23.7303 14.3882 23.5687 14.0622 23.5503C13.7361 23.532 13.3338 23.7618 13.0622 23.5503L1.06215 13.4959C0.81509 13.3034 0.20225 12.6847 0.0621462 12.3788C0.0621462 12.7258 -0.0779561 12.0729 0.0621462 12.3788C0.0621462 12.0318 -0.0779561 11.5676 0.0621463 11.2616C0.20225 10.9557 0.81509 10.337 1.06215 10.1445L13.0622 0.0900876C13.3339 -0.121453 13.736 0.108356 14.0622 0.0900877C14.3883 0.0718192 14.7743 -0.0901109 15.0622 0.0900878C15.35 0.270286 15.8945 0.879814 16.0622 1.20724C16.2298 1.53467 16.0623 1.94283 16.0622 2.3244L16.0622 21.316Z" fill="#F1F1F1"/>
</svg>
