<svg width="22" height="22" viewBox="0 0 22 22" fill="none" xmlns="http://www.w3.org/2000/svg">
<path fill-rule="evenodd" clip-rule="evenodd" d="M11.0001 0.916626C5.43133 0.916626 0.916748 5.43121 0.916748 11C0.916748 16.5687 5.43133 21.0833 11.0001 21.0833C16.5688 21.0833 21.0834 16.5687 21.0834 11C21.0834 5.43121 16.5688 0.916626 11.0001 0.916626ZM7.9815 8.97688C7.80861 8.8099 7.57706 8.7175 7.33671 8.71959C7.09637 8.72168 6.86646 8.81809 6.6965 8.98804C6.52654 9.158 6.43014 9.38791 6.42805 9.62826C6.42596 9.86861 6.51835 10.1002 6.68533 10.273L10.352 13.9397C10.5239 14.1116 10.757 14.2081 11.0001 14.2081C11.2431 14.2081 11.4763 14.1116 11.6482 13.9397L15.3148 10.273C15.4818 10.1002 15.5742 9.86861 15.5721 9.62826C15.57 9.38791 15.4736 9.158 15.3037 8.98804C15.1337 8.81809 14.9038 8.72168 14.6635 8.71959C14.4231 8.7175 14.1916 8.8099 14.0187 8.97688L11.0001 11.9955L7.9815 8.97688Z" fill="white"/>
</svg>
