<svg width="17" height="24" viewBox="0 0 17 24" fill="none" xmlns="http://www.w3.org/2000/svg">
<path d="M0.211273 2.32435C0.211355 1.94293 0.0435106 1.53438 0.211273 1.20719C0.379036 0.880004 0.923495 0.270034 1.21127 0.090038C1.49905 -0.0899578 1.88524 0.0717006 2.21128 0.090038C2.53731 0.108375 2.93962 -0.121423 3.21128 0.090038L15.2113 10.1444C15.4583 10.3369 16.0712 10.9557 16.2113 11.2616C16.2113 10.9146 16.3514 11.5675 16.2113 11.2616C16.2113 11.6086 16.3514 12.0728 16.2113 12.3787C16.0712 12.6847 15.4583 13.3034 15.2113 13.4959L3.21128 23.5503C2.93952 23.7618 2.53743 23.532 2.21128 23.5503C1.88512 23.5686 1.4991 23.7305 1.21127 23.5503C0.923449 23.3701 0.37893 22.7606 0.211273 22.4331C0.0436157 22.1057 0.211094 21.6975 0.211273 21.316V2.32435Z" fill="#F1F1F1"/>
</svg>
