<svg width="526" height="500" viewBox="0 0 526 500" fill="none" xmlns="http://www.w3.org/2000/svg">
<path d="M491.936 455.76C491.936 458.41 389.818 460.55 263.869 460.55C137.919 460.55 35.801 458.41 35.801 455.76C35.801 453.11 137.94 451 263.869 451C389.797 451 491.936 453.12 491.936 455.76Z" fill="#F5F5F5"/>
<path d="M429.566 432L430.627 448.07L423.416 448.61L418.58 432.81L429.566 432Z" fill="#CE7A63"/>
<path d="M425.098 447C424.807 446.649 424.418 446.383 423.975 446.233C423.533 446.083 423.055 446.054 422.596 446.15C421.198 446.59 419.358 448.77 419.358 448.77C419.358 448.77 411.768 451.09 409.718 451.21C407.668 451.33 406.312 452.58 406.144 456.21H431.973C431.973 456.21 431.973 447.69 431.101 446.21C430.344 444.93 428.819 446.58 428.819 446.58L425.098 447Z" fill="#263238"/>
<path d="M406.733 455.1L411.222 455.05L430.817 454.86C430.861 454.85 430.9 454.827 430.928 454.793C430.956 454.76 430.971 454.718 430.971 454.675C430.971 454.632 430.956 454.591 430.928 454.557C430.9 454.523 430.861 454.5 430.817 454.49H429.482C429.08 453.571 429.064 452.54 429.438 451.609C429.811 450.679 430.546 449.921 431.49 449.49C431.513 449.48 431.535 449.464 431.552 449.446C431.569 449.427 431.583 449.405 431.59 449.381C431.598 449.357 431.601 449.332 431.598 449.307C431.595 449.282 431.587 449.258 431.574 449.236C431.56 449.215 431.543 449.196 431.521 449.181C431.5 449.166 431.476 449.156 431.45 449.151C431.424 449.146 431.398 449.145 431.372 449.15C431.346 449.155 431.322 449.166 431.3 449.18C430.291 449.645 429.503 450.456 429.094 451.449C428.684 452.443 428.684 453.546 429.093 454.54H426.328L406.733 454.74C406.693 454.753 406.659 454.777 406.634 454.809C406.61 454.842 406.597 454.88 406.597 454.92C406.597 454.96 406.61 454.999 406.634 455.031C406.659 455.063 406.693 455.087 406.733 455.1Z" fill="white"/>
<path d="M420.241 450.27C420.064 449.992 419.827 449.753 419.546 449.569C419.265 449.385 418.945 449.26 418.609 449.202C418.273 449.144 417.928 449.155 417.597 449.234C417.266 449.313 416.956 449.458 416.688 449.66C416.488 449.8 416.299 449.48 416.499 449.34C416.811 449.115 417.169 448.955 417.55 448.87C417.931 448.785 418.327 448.778 418.711 448.847C419.096 448.917 419.46 449.063 419.782 449.275C420.103 449.488 420.374 449.762 420.578 450.08C420.714 450.27 420.388 450.46 420.241 450.27Z" fill="white"/>
<path d="M418.097 450.88C417.919 450.603 417.681 450.366 417.4 450.183C417.118 449.999 416.799 449.875 416.464 449.817C416.128 449.76 415.784 449.77 415.453 449.848C415.122 449.926 414.812 450.07 414.543 450.27C414.344 450.41 414.155 450.09 414.354 449.95C414.667 449.726 415.026 449.566 415.407 449.482C415.789 449.398 416.185 449.391 416.569 449.462C416.954 449.533 417.318 449.679 417.639 449.893C417.96 450.106 418.231 450.381 418.433 450.7C418.57 450.89 418.244 451.07 418.097 450.88Z" fill="white"/>
<path d="M415.889 451.5C415.712 451.222 415.475 450.983 415.194 450.799C414.913 450.615 414.593 450.49 414.257 450.432C413.921 450.374 413.576 450.385 413.245 450.464C412.913 450.543 412.604 450.688 412.336 450.89C412.136 451.03 411.947 450.71 412.136 450.57C412.448 450.345 412.806 450.185 413.187 450.1C413.568 450.015 413.964 450.008 414.348 450.077C414.733 450.147 415.098 450.293 415.419 450.505C415.741 450.718 416.012 450.992 416.215 451.31C416.362 451.5 416.026 451.69 415.889 451.5Z" fill="white"/>
<path d="M374.344 431.83L373.345 448.06L366.071 448.61L363.253 432.65L374.344 431.83Z" fill="#CE7A63"/>
<path d="M367.742 447C367.451 446.649 367.062 446.383 366.619 446.233C366.177 446.083 365.699 446.054 365.24 446.15C363.842 446.59 362.002 448.77 362.002 448.77C362.002 448.77 354.412 451.09 352.362 451.21C350.312 451.33 348.515 452.43 347.747 456.21H372.62C372.62 456.21 373.597 447.67 373.745 446.21C373.892 444.75 371.463 446.58 371.463 446.58L367.742 447Z" fill="#263238"/>
<path d="M348.483 455.1L352.962 455.05L372.557 454.86C372.601 454.85 372.64 454.827 372.668 454.793C372.696 454.76 372.711 454.718 372.711 454.675C372.711 454.632 372.696 454.591 372.668 454.557C372.64 454.523 372.601 454.5 372.557 454.49H371.232C370.831 453.569 370.817 452.537 371.193 451.607C371.568 450.677 372.305 449.919 373.251 449.49C373.275 449.48 373.296 449.464 373.313 449.446C373.331 449.427 373.344 449.405 373.352 449.381C373.359 449.357 373.362 449.332 373.359 449.307C373.356 449.282 373.348 449.258 373.335 449.236C373.322 449.215 373.304 449.196 373.282 449.181C373.261 449.166 373.237 449.156 373.211 449.151C373.185 449.146 373.159 449.145 373.133 449.15C373.107 449.155 373.083 449.166 373.061 449.18C372.052 449.645 371.264 450.456 370.855 451.449C370.446 452.443 370.445 453.546 370.854 454.54H368.089L348.494 454.74C348.454 454.752 348.419 454.775 348.393 454.807C348.368 454.838 348.354 454.877 348.353 454.916C348.351 454.956 348.363 454.995 348.387 455.028C348.41 455.061 348.444 455.086 348.483 455.1Z" fill="white"/>
<path d="M362.906 450.27C362.73 449.992 362.493 449.753 362.211 449.569C361.93 449.385 361.611 449.26 361.274 449.202C360.938 449.144 360.593 449.155 360.262 449.234C359.931 449.313 359.621 449.458 359.353 449.66C359.153 449.8 358.964 449.48 359.164 449.34C359.476 449.115 359.834 448.955 360.215 448.87C360.596 448.785 360.992 448.778 361.376 448.847C361.761 448.917 362.126 449.063 362.447 449.275C362.769 449.488 363.04 449.762 363.243 450.08C363.39 450.27 363.054 450.46 362.906 450.27Z" fill="white"/>
<path d="M360.741 450.88C360.564 450.604 360.327 450.366 360.047 450.183C359.766 450 359.448 449.876 359.113 449.818C358.779 449.76 358.435 449.771 358.105 449.849C357.775 449.927 357.466 450.07 357.198 450.27C356.998 450.41 356.799 450.09 356.998 449.95C357.311 449.726 357.67 449.566 358.051 449.482C358.433 449.398 358.829 449.391 359.213 449.462C359.598 449.533 359.962 449.679 360.283 449.893C360.604 450.106 360.875 450.381 361.077 450.7C361.224 450.89 360.888 451.07 360.741 450.88Z" fill="white"/>
<path d="M358.533 451.5C358.356 451.222 358.119 450.983 357.838 450.799C357.557 450.615 357.237 450.49 356.901 450.432C356.565 450.374 356.22 450.385 355.889 450.464C355.558 450.543 355.248 450.688 354.98 450.89C354.78 451.03 354.591 450.71 354.791 450.57C355.103 450.345 355.461 450.185 355.842 450.1C356.223 450.015 356.619 450.008 357.003 450.077C357.388 450.147 357.752 450.293 358.074 450.505C358.395 450.718 358.667 450.992 358.87 451.31C359.006 451.5 358.68 451.69 358.533 451.5Z" fill="white"/>
<path d="M357.398 262.66C357.398 262.66 353.193 316.91 353.435 340.74C353.729 365.52 362.223 437.65 362.223 437.65H376.141C376.141 437.65 378.707 366.79 379.947 342.45C381.303 315.91 389.639 258.31 389.639 258.31L357.398 262.66Z" fill="#263238"/>
<path opacity="0.2" d="M382.607 312.93C383.658 303.19 384.951 293.13 386.086 284.34L384.457 275.06C384.457 275.06 379.001 289.54 382.607 312.93Z" fill="black"/>
<path d="M377.182 433.64C377.182 435.07 377.046 437.92 377.046 437.92H361.014L360.531 433.64H377.182Z" fill="#1243BA"/>
<path d="M381.145 258.31C381.145 258.31 385.35 318.06 389.913 340.44C394.885 364.93 417.455 437.65 417.455 437.65H432.499C432.499 437.65 422.827 367.1 420.262 342.84C417.466 316.52 416.257 263.36 416.257 263.36L381.145 258.31Z" fill="#263238"/>
<path d="M433.172 433.54C433.319 435 433.55 437.92 433.55 437.92H415.931L414.88 433.54H433.172Z" fill="#1243BA"/>
<path d="M418.812 268.45C388.735 270.4 366.123 270.55 354.139 266.25C353.309 215.87 355.19 184.53 357.65 176.87C357.978 175.848 358.52 174.9 359.242 174.082C359.965 173.264 360.854 172.594 361.855 172.11C364.826 170.69 368.023 169.744 371.316 169.31C377.624 168.42 388.042 168.16 395.264 168.18C399.227 168.18 403.295 168.48 406.649 168.8C410.854 169.21 413.534 172.75 413.356 176.73C412.998 184.39 412.967 192.14 413.156 199.73C413.271 204.11 413.45 208.43 413.681 212.66C415.164 239.68 418.759 262.56 418.812 268.45Z" fill="#1243BA"/>
<path opacity="0.2" d="M413.66 212.67L400.751 185.67L413.135 199.75C413.25 204.12 413.429 208.44 413.66 212.67Z" fill="black"/>
<path d="M375.647 129C374.06 127.36 368.73 127.22 366.186 130.38C363.474 133.76 360.036 140 357.85 138.38C358.174 139.314 358.789 140.133 359.613 140.727C360.437 141.322 361.432 141.664 362.465 141.71C362.465 141.71 360.247 144.02 357.387 143.17C357.886 144.509 358.771 145.688 359.94 146.572C361.109 147.456 362.516 148.01 364 148.17C368.888 148.85 375.7 135.52 376.783 133.34C376.783 130.85 376.573 131 375.647 129Z" fill="#263238"/>
<path d="M378.675 129.55C380.831 129.302 383.018 129.481 385.098 130.074C387.179 130.668 389.108 131.664 390.764 133C392.93 134.78 394.612 137.12 393.865 139.92C392.12 146.44 387.495 156.92 387.495 156.92L366.743 141.73C366.743 141.73 366.638 135.4 369.971 132.26C371.716 130.63 375.521 129.89 378.675 129.55Z" fill="#263238"/>
<path d="M374.88 129.19C374.88 129.19 382.028 124.34 391.542 131.07C401.056 137.8 391.542 149.98 391.542 149.98C391.542 149.98 388.494 155.37 391.185 156.7C390.24 157.048 389.233 157.214 388.22 157.19C388.22 157.19 389.145 158.83 390.323 158.68C390.323 158.68 388.672 159.31 385.75 158.07C382.827 156.83 374.88 129.19 374.88 129.19Z" fill="#263238"/>
<path d="M375.332 162.79C375.332 162.79 375.332 162.79 375.332 162.88L375.9 166.82C375.888 167.599 375.8 168.376 375.637 169.14C375.504 169.758 375.325 170.366 375.101 170.96C374.049 172.01 373.303 174.57 376.446 174.96C380.409 175.45 388.388 170.79 388.872 169.16C387.705 163.79 386.948 157.59 387.884 152.7L382.764 156.82L375.332 162.79Z" fill="#CE7A63"/>
<path opacity="0.2" d="M375.353 162.89L375.921 166.83C378.538 166.05 381.44 164.03 382.354 161.59C383.006 159.83 382.354 158.03 381.618 157.85L375.353 162.89Z" fill="black"/>
<path d="M366.365 153.7C366.491 154.56 366.649 155.41 366.817 156.25C368.394 163.68 377.561 165.41 383.994 160.83C384.578 160.415 385.126 159.957 385.634 159.46C389.892 155.31 389.429 151.69 389.913 143.64C390.042 141.773 389.668 139.905 388.827 138.213C387.986 136.521 386.705 135.061 385.105 133.972C383.505 132.883 381.639 132.2 379.685 131.988C377.73 131.776 375.75 132.041 373.934 132.76C366.449 135.68 365.082 145.11 366.365 153.7Z" fill="#CE7A63"/>
<path d="M376.488 147.15C376.488 147.8 376.152 148.33 375.7 148.34C375.248 148.35 374.89 147.82 374.88 147.17C374.869 146.52 375.227 145.99 375.668 145.99C376.11 145.99 376.488 146.5 376.488 147.15Z" fill="#263238"/>
<path d="M369.067 147.22C369.067 147.87 368.72 148.4 368.278 148.41C367.837 148.42 367.458 147.89 367.448 147.24C367.437 146.59 367.795 146.06 368.247 146.06C368.699 146.06 369.056 146.57 369.067 147.22Z" fill="#263238"/>
<path d="M373.808 156H373.566C373.501 155.984 373.445 155.945 373.408 155.891C373.371 155.838 373.356 155.773 373.366 155.71C373.374 155.678 373.388 155.647 373.408 155.62C373.428 155.593 373.453 155.57 373.482 155.553C373.512 155.535 373.544 155.523 373.579 155.517C373.613 155.512 373.648 155.513 373.682 155.52C374.183 155.613 374.698 155.609 375.197 155.507C375.696 155.405 376.168 155.208 376.585 154.927C377.002 154.647 377.354 154.289 377.621 153.875C377.888 153.461 378.064 153 378.139 152.52C378.146 152.488 378.16 152.457 378.18 152.43C378.2 152.403 378.226 152.38 378.255 152.363C378.284 152.345 378.317 152.333 378.351 152.327C378.385 152.322 378.42 152.323 378.454 152.33C378.519 152.349 378.575 152.39 378.61 152.445C378.645 152.501 378.657 152.567 378.643 152.63C378.465 153.684 377.857 154.628 376.952 155.259C376.047 155.889 374.918 156.156 373.808 156Z" fill="#263238"/>
<path d="M389.923 144.38C388.703 145.27 387.812 146.507 387.379 147.91C387.367 148.063 387.306 148.209 387.205 148.329C387.103 148.448 386.966 148.536 386.812 148.58L383.742 148.82C383.742 148.82 385.613 141.06 383.427 140.9C381.24 140.74 384.057 137.49 382.817 136.82C379.894 135.25 371.484 134.16 367.605 138.6C367.605 138.6 369.098 133.94 373.429 131.86C377.76 129.78 385.865 130.2 388.609 134.34C391.353 138.48 389.923 144.38 389.923 144.38Z" fill="#263238"/>
<path d="M393.582 149C392.99 150.944 391.614 152.586 389.755 153.57C387.274 154.85 385.403 152.89 385.55 150.35C385.697 148.06 387.158 144.64 389.902 144.41C392.646 144.18 394.265 146.61 393.561 149" fill="#CE7A63"/>
<path d="M367.038 144.53C367.096 144.531 367.153 144.516 367.203 144.488C367.254 144.46 367.294 144.419 367.322 144.37C367.426 144.165 367.572 143.982 367.753 143.832C367.934 143.683 368.145 143.57 368.373 143.5C368.838 143.415 369.319 143.482 369.739 143.69C369.777 143.713 369.819 143.729 369.863 143.736C369.907 143.743 369.953 143.741 369.996 143.731C370.039 143.72 370.08 143.702 370.115 143.676C370.151 143.65 370.18 143.617 370.202 143.58C370.225 143.544 370.24 143.504 370.247 143.462C370.253 143.42 370.251 143.378 370.24 143.337C370.23 143.296 370.21 143.258 370.184 143.224C370.158 143.19 370.124 143.161 370.086 143.14C369.512 142.843 368.843 142.754 368.205 142.89C367.89 142.977 367.598 143.126 367.348 143.327C367.098 143.529 366.895 143.779 366.754 144.06C366.73 144.095 366.715 144.135 366.708 144.177C366.702 144.219 366.704 144.261 366.716 144.302C366.728 144.342 366.749 144.38 366.777 144.412C366.805 144.445 366.84 144.471 366.88 144.49C366.928 144.517 366.982 144.53 367.038 144.53Z" fill="#263238"/>
<path d="M379.937 144.28C379.985 144.272 380.032 144.255 380.073 144.23C380.113 144.211 380.148 144.185 380.176 144.152C380.204 144.12 380.225 144.082 380.237 144.042C380.249 144.001 380.252 143.959 380.245 143.917C380.239 143.875 380.223 143.836 380.199 143.8C379.859 143.267 379.323 142.872 378.696 142.69C378.377 142.619 378.046 142.612 377.724 142.669C377.402 142.726 377.096 142.845 376.825 143.02C376.748 143.064 376.693 143.135 376.671 143.217C376.65 143.3 376.663 143.387 376.709 143.46C376.755 143.533 376.83 143.585 376.916 143.606C377.003 143.627 377.095 143.614 377.172 143.57C377.366 143.439 377.587 143.348 377.821 143.303C378.054 143.258 378.295 143.261 378.528 143.31C378.967 143.454 379.34 143.741 379.579 144.12C379.612 144.18 379.665 144.228 379.729 144.257C379.794 144.286 379.867 144.294 379.937 144.28Z" fill="#263238"/>
<path d="M372.42 146.6C372.05 147.932 371.284 149.133 370.212 150.06C368.488 151.45 371.905 152.66 371.905 152.66L372.42 146.6Z" fill="#BA4D3C"/>
<path d="M387.085 145.93C384.44 145.589 381.75 146.107 379.453 147.4C379.253 145.62 378.034 144.24 376.541 144.24C375.048 144.24 373.703 145.77 373.619 147.7C373.178 147.397 372.648 147.234 372.105 147.234C371.561 147.234 371.032 147.397 370.591 147.7C370.486 145.8 369.214 144.29 367.658 144.29C366.102 144.29 364.714 145.93 364.714 147.96C364.714 149.99 366.039 151.63 367.658 151.63C369.277 151.63 370.58 150.01 370.601 148.01C370.749 147.88 371.821 146.96 373.608 148.01C373.608 150.01 374.943 151.61 376.541 151.61C378.139 151.61 379.495 149.96 379.495 147.94C379.5 147.863 379.5 147.787 379.495 147.71C381.761 146.377 384.448 145.846 387.085 146.21C387.102 146.213 387.12 146.212 387.137 146.208C387.154 146.204 387.17 146.196 387.184 146.186C387.198 146.176 387.21 146.163 387.218 146.148C387.226 146.133 387.231 146.117 387.232 146.1C387.237 146.079 387.237 146.058 387.231 146.037C387.226 146.017 387.216 145.997 387.202 145.981C387.188 145.965 387.17 145.951 387.15 145.943C387.129 145.934 387.107 145.929 387.085 145.93ZM367.658 151.33C366.176 151.33 364.977 149.79 364.977 147.91C364.977 146.03 366.176 144.49 367.658 144.49C369.14 144.49 370.349 146.02 370.349 147.91C370.349 149.8 369.109 151.33 367.626 151.33H367.658ZM376.541 151.33C375.069 151.33 373.86 149.79 373.86 147.91C373.86 146.03 375.069 144.49 376.541 144.49C378.013 144.49 379.232 146.02 379.232 147.91C379.232 149.8 377.992 151.33 376.509 151.33H376.541Z" fill="white"/>
<path d="M357.114 178.88L348.094 199.42C346.58 202.82 345.035 206.2 343.469 209.51C342.691 211.16 341.881 212.79 341.072 214.36C340.262 215.93 339.432 217.47 338.644 218.73C338.431 219.075 338.199 219.408 337.95 219.73L336.783 220.26L335.5 220.81L332.872 221.9L322.055 226.26C314.791 229.19 307.516 232.21 300.315 235.4L302.859 242.94C310.712 241.52 318.47 239.85 326.207 237.94C330.065 236.94 333.923 236.02 337.771 234.94L340.715 234.09L342.207 233.64L343.795 233.12L344.394 232.91L344.667 232.8L345.718 232.35L346.286 232.1C346.517 231.97 346.738 231.85 346.948 231.71C347.159 231.57 347.39 231.43 347.516 231.34C348.024 230.972 348.505 230.571 348.956 230.14C349.429 229.68 349.818 229.26 350.155 228.87C350.796 228.14 351.258 227.51 351.732 226.87C352.531 225.77 353.224 224.71 353.834 223.68C354.318 222.93 354.759 222.2 355.201 221.47C356.252 219.71 357.198 217.97 358.134 216.24C360.015 212.77 361.729 209.24 363.39 205.81C366.722 198.81 369.823 191.87 372.651 184.68L357.114 178.88ZM338.433 219.54H338.37L338.475 219.47L338.57 219.42L338.433 219.54Z" fill="#1243BA"/>
<path opacity="0.2" d="M356.305 191.45C355.432 197.45 353.939 223.67 353.939 223.67C353.941 223.693 353.941 223.717 353.939 223.74C353.287 224.74 352.594 225.83 351.837 226.93C351.364 227.56 350.901 228.19 350.26 228.93C350.786 216.31 356.305 191.45 356.305 191.45Z" fill="black"/>
<path d="M303.5 240.61C303.269 239.128 302.864 237.676 302.292 236.28C301.016 235.01 299.312 234.206 297.477 234.01C294.849 233.95 292.757 233.24 290.791 233.33C288.825 233.42 290.917 234.97 292.2 235.59C293.482 236.21 294.943 236.91 294.302 237.76C293.661 238.61 285.083 242.28 284.326 243.55C283.569 244.82 285.167 244.63 285.167 244.63C285.167 244.63 283.243 245.47 283.275 246.46C283.306 247.45 284.683 247.27 284.683 247.27C284.683 247.27 283.411 247.87 283.968 248.67C284.252 249.09 286.439 248.76 288.499 248.36C288.068 248.56 287.774 248.8 287.721 249.1C287.532 250.32 290.37 249.92 292.641 249.64C294.985 249.386 297.163 248.364 298.801 246.75C300.368 245.11 303.921 243.15 303.5 240.61ZM292.095 247.61C292.161 247.603 292.228 247.603 292.294 247.61H292.095Z" fill="#CE7A63"/>
<path d="M285.041 247.33C287.238 246.39 289.466 245.51 291.706 244.72C291.943 245.273 292.225 245.807 292.547 246.32C292.704 246.58 293.051 246.25 292.893 246C291.914 244.385 291.315 242.587 291.138 240.73C291.138 240.42 290.675 240.52 290.707 240.83C290.757 241.3 290.834 241.768 290.938 242.23C290.897 242.215 290.853 242.215 290.812 242.23C288.977 242.729 287.212 243.437 285.556 244.34C285.303 244.48 285.472 244.92 285.734 244.78C287.344 243.897 289.059 243.202 290.844 242.71C290.874 242.7 290.902 242.684 290.925 242.664C290.949 242.643 290.967 242.618 290.98 242.59C291.111 243.172 291.286 243.743 291.506 244.3C289.256 245.09 287.038 245.96 284.83 246.91C284.599 247 284.767 247.45 285.041 247.33Z" fill="#BA4D3C"/>
<path d="M293.461 242.49C294.156 241.473 295.188 240.706 296.394 240.311C297.6 239.916 298.91 239.916 300.115 240.31C300.378 240.41 300.546 239.95 300.284 239.85C297.698 238.94 294.954 239.85 293.104 242.22C293.079 242.241 293.059 242.268 293.046 242.297C293.033 242.327 293.027 242.358 293.028 242.39C293.029 242.422 293.037 242.453 293.052 242.482C293.068 242.51 293.089 242.535 293.115 242.555C293.141 242.575 293.172 242.589 293.205 242.597C293.237 242.604 293.271 242.605 293.304 242.599C293.337 242.593 293.368 242.58 293.395 242.561C293.422 242.542 293.445 242.518 293.461 242.49Z" fill="#BA4D3C"/>
<path d="M411.905 171.84C417.045 178.19 421.955 184.67 426.801 191.22C429.24 194.48 431.626 197.78 434.002 201.1C436.378 204.42 438.701 207.72 441.087 211.27L441.55 211.95L442.107 212.82L442.38 213.26L442.454 213.37L442.696 213.8L442.959 214.32C443.043 214.5 443.116 214.68 443.148 214.77C443.3 215.17 443.429 215.577 443.537 215.99L443.652 216.47L443.726 216.86C443.858 217.644 443.932 218.436 443.947 219.23C443.947 219.89 443.947 220.51 443.947 221.09C443.884 223.41 443.694 225.49 443.484 227.58C443.053 231.73 442.433 235.75 441.802 239.76C440.488 247.76 438.838 255.67 436.893 263.56L428.073 262.56C428.073 254.56 428.168 246.56 428.294 238.68C428.294 234.68 428.367 230.79 428.294 226.95C428.294 225.05 428.199 223.14 428.041 221.47C428.041 221.05 427.957 220.67 427.905 220.33C427.886 220.128 427.837 219.929 427.758 219.74V219.86C427.792 220.035 427.845 220.206 427.915 220.37L428.031 220.64C428.081 220.759 428.137 220.876 428.199 220.99L428.357 221.26V221.21L428.199 221.02L427.474 220.08C425.098 217.08 422.47 213.87 419.968 210.71C417.466 207.55 414.89 204.39 412.378 201.2C407.332 194.83 402.328 188.43 397.503 181.9L411.905 171.84Z" fill="#1243BA"/>
<path d="M436.725 263.05C434.801 258.31 430.501 259.52 429.24 260.72C429.24 260.72 426.086 263.8 425.403 265.56C424.719 267.32 423.805 269.04 424.131 269.84C424.288 270.22 424.846 269.84 425.392 269.3C425.119 269.939 424.949 270.613 424.888 271.3C424.888 271.3 425.371 276.16 427.358 277.68C429.345 279.2 428.966 274.83 428.966 274.83C428.966 274.83 429.208 279.16 434.012 277.76C435.863 277.23 437.902 272.04 438.217 269.15C439.069 266.71 436.725 263.05 436.725 263.05Z" fill="#CE7A63"/>
<path d="M376.005 167.62C376.005 167.62 371.916 167.2 369.697 169.57C368.814 172.48 370.749 175.94 372.851 179.44L377.382 174.99C377.708 175 375.353 171.19 376.005 167.62Z" fill="#1243BA"/>
<path opacity="0.2" d="M376.005 167.62C376.005 167.62 371.916 167.2 369.697 169.57C368.814 172.48 370.749 175.94 372.851 179.44L377.382 174.99C377.708 175 375.353 171.19 376.005 167.62Z" fill="black"/>
<path d="M388.189 165.5C386.254 169.75 382.113 172.56 377.403 174.99L379.957 179.44L395.726 168.18C395.726 168.18 391.206 164.36 388.189 165.5Z" fill="#1243BA"/>
<path opacity="0.2" d="M388.189 165.5C386.254 169.75 382.113 172.56 377.403 174.99L379.957 179.44L395.726 168.18C395.726 168.18 391.206 164.36 388.189 165.5Z" fill="black"/>
<path opacity="0.2" d="M377.424 181.41C377.424 181.563 377.376 181.712 377.287 181.839C377.197 181.966 377.07 182.064 376.922 182.122C376.773 182.18 376.61 182.195 376.453 182.164C376.295 182.134 376.151 182.059 376.038 181.951C375.926 181.842 375.849 181.704 375.819 181.554C375.789 181.404 375.807 181.249 375.87 181.108C375.933 180.968 376.038 180.848 376.172 180.765C376.307 180.681 376.464 180.638 376.625 180.64C376.838 180.643 377.041 180.725 377.191 180.869C377.34 181.013 377.424 181.207 377.424 181.41Z" fill="black"/>
<path opacity="0.2" d="M377.424 186.43C377.424 186.583 377.376 186.732 377.287 186.859C377.197 186.986 377.07 187.084 376.922 187.142C376.773 187.2 376.61 187.215 376.453 187.184C376.295 187.154 376.151 187.08 376.038 186.971C375.926 186.862 375.849 186.724 375.819 186.574C375.789 186.424 375.807 186.269 375.87 186.128C375.933 185.988 376.038 185.868 376.172 185.785C376.307 185.701 376.464 185.658 376.625 185.66C376.838 185.663 377.041 185.745 377.191 185.889C377.34 186.033 377.424 186.227 377.424 186.43Z" fill="black"/>
<path opacity="0.2" d="M377.424 191.45C377.424 191.603 377.376 191.752 377.287 191.879C377.197 192.006 377.07 192.104 376.922 192.162C376.773 192.22 376.61 192.235 376.453 192.204C376.295 192.174 376.151 192.1 376.038 191.991C375.926 191.882 375.849 191.744 375.819 191.594C375.789 191.444 375.807 191.289 375.87 191.148C375.933 191.008 376.038 190.888 376.172 190.805C376.307 190.721 376.464 190.678 376.625 190.68C376.838 190.683 377.041 190.765 377.191 190.909C377.34 191.053 377.424 191.248 377.424 191.45Z" fill="black"/>
<path d="M276.788 438.04L278.954 448.42H284.715L285.482 438.04H276.788Z" fill="#FFC3BD"/>
<path d="M283.958 447.1C284.246 446.752 284.632 446.488 285.07 446.337C285.509 446.187 285.983 446.157 286.439 446.25C287.826 446.69 289.592 448.85 289.592 448.85C289.592 448.85 297.119 451.15 299.148 451.27C301.177 451.39 302.964 452.48 303.721 456.27H279.133C279.133 456.27 278.165 447.82 278.008 446.37C277.85 444.92 280.278 446.73 280.278 446.73L283.958 447.1Z" fill="#263238"/>
<path d="M302.985 455.1H298.549L279.143 454.91C278.901 454.91 278.901 454.54 279.143 454.55H280.457C280.87 453.633 280.893 452.599 280.52 451.666C280.148 450.734 279.409 449.975 278.46 449.55C278.239 449.44 278.46 449.12 278.649 449.24C279.647 449.703 280.426 450.506 280.831 451.489C281.236 452.473 281.238 453.565 280.836 454.55C281.75 454.55 282.665 454.55 283.579 454.55L302.975 454.74C303 454.739 303.024 454.744 303.048 454.752C303.071 454.76 303.092 454.773 303.11 454.789C303.128 454.806 303.143 454.825 303.153 454.847C303.163 454.868 303.169 454.892 303.169 454.915C303.17 454.939 303.166 454.962 303.157 454.984C303.148 455.006 303.135 455.027 303.118 455.044C303.101 455.061 303.08 455.075 303.057 455.085C303.035 455.094 303.01 455.099 302.985 455.1Z" fill="#1243BA"/>
<path d="M288.762 450.32C288.939 450.046 289.175 449.811 289.454 449.63C289.733 449.449 290.049 449.326 290.381 449.27C290.714 449.213 291.055 449.224 291.383 449.301C291.711 449.379 292.018 449.522 292.284 449.72C292.483 449.86 292.673 449.54 292.473 449.4C292.164 449.178 291.809 449.019 291.431 448.936C291.054 448.852 290.662 448.845 290.281 448.915C289.9 448.984 289.539 449.13 289.222 449.341C288.904 449.552 288.636 449.824 288.436 450.14C288.299 450.33 288.625 450.51 288.762 450.32Z" fill="white"/>
<path d="M290.885 450.93C291.062 450.656 291.298 450.421 291.577 450.24C291.856 450.059 292.172 449.936 292.505 449.88C292.838 449.823 293.179 449.834 293.507 449.911C293.835 449.989 294.141 450.132 294.407 450.33C294.607 450.47 294.796 450.15 294.596 450.01C294.287 449.788 293.932 449.629 293.555 449.546C293.177 449.462 292.785 449.455 292.405 449.525C292.024 449.595 291.663 449.74 291.345 449.951C291.027 450.162 290.76 450.434 290.56 450.75C290.412 450.94 290.749 451.12 290.885 450.93Z" fill="white"/>
<path d="M293.083 451.54C293.258 451.265 293.493 451.029 293.773 450.847C294.052 450.665 294.368 450.541 294.701 450.485C295.034 450.428 295.376 450.439 295.704 450.518C296.032 450.596 296.339 450.74 296.604 450.94C296.793 451.08 296.983 450.76 296.793 450.62C296.483 450.397 296.128 450.239 295.749 450.155C295.371 450.072 294.978 450.064 294.597 450.134C294.215 450.204 293.854 450.349 293.535 450.56C293.216 450.771 292.947 451.044 292.746 451.36C292.61 451.55 292.935 451.73 293.083 451.54Z" fill="white"/>
<path d="M225.204 438.11L226.402 448.42H232.163L233.887 438.11H225.204Z" fill="#FFC3BD"/>
<path d="M231.406 447.1C231.695 446.752 232.08 446.488 232.519 446.337C232.957 446.187 233.431 446.157 233.887 446.25C235.275 446.69 237.041 448.85 237.041 448.85C237.041 448.85 244.568 451.15 246.597 451.27C248.625 451.39 250.402 452.48 251.169 456.27H226.581C226.581 456.27 225.614 447.82 225.456 446.37C225.298 444.92 227.727 446.73 227.727 446.73L231.406 447.1Z" fill="#263238"/>
<path d="M250.476 455.1H246.039L226.633 454.91C226.583 454.91 226.535 454.891 226.5 454.857C226.464 454.824 226.444 454.778 226.444 454.73C226.444 454.682 226.464 454.637 226.5 454.603C226.535 454.569 226.583 454.55 226.633 454.55H227.947C228.361 453.633 228.383 452.599 228.011 451.666C227.638 450.734 226.899 449.975 225.95 449.55C225.729 449.44 225.95 449.12 226.139 449.24C227.138 449.703 227.917 450.506 228.322 451.489C228.727 452.473 228.728 453.565 228.326 454.55C229.24 454.55 230.155 454.55 231.07 454.55L250.465 454.74C250.49 454.739 250.515 454.744 250.538 454.752C250.561 454.76 250.582 454.773 250.6 454.789C250.619 454.806 250.633 454.825 250.643 454.847C250.653 454.868 250.659 454.892 250.66 454.915C250.66 454.939 250.656 454.962 250.647 454.984C250.638 455.006 250.625 455.027 250.608 455.044C250.591 455.061 250.57 455.075 250.548 455.085C250.525 455.094 250.5 455.099 250.476 455.1Z" fill="#1243BA"/>
<path d="M236.21 450.32C236.387 450.046 236.623 449.811 236.902 449.63C237.181 449.449 237.497 449.326 237.83 449.27C238.162 449.213 238.504 449.224 238.831 449.301C239.159 449.379 239.466 449.522 239.732 449.72C239.932 449.86 240.121 449.54 239.921 449.4C239.612 449.178 239.257 449.019 238.88 448.936C238.502 448.852 238.11 448.845 237.729 448.915C237.349 448.984 236.988 449.13 236.67 449.341C236.352 449.552 236.084 449.824 235.884 450.14C235.748 450.33 236.074 450.51 236.21 450.32Z" fill="white"/>
<path d="M238.334 450.93C238.511 450.656 238.746 450.421 239.025 450.24C239.305 450.059 239.621 449.936 239.953 449.88C240.286 449.823 240.627 449.834 240.955 449.911C241.283 449.989 241.59 450.132 241.855 450.33C242.055 450.47 242.244 450.15 242.045 450.01C241.736 449.788 241.381 449.629 241.003 449.546C240.626 449.462 240.234 449.455 239.853 449.525C239.472 449.595 239.111 449.74 238.793 449.951C238.476 450.162 238.208 450.434 238.008 450.75C237.861 450.94 238.197 451.12 238.334 450.93Z" fill="white"/>
<path d="M240.531 451.54C240.707 451.267 240.941 451.032 241.22 450.851C241.498 450.67 241.813 450.547 242.145 450.49C242.477 450.433 242.817 450.444 243.144 450.522C243.471 450.599 243.777 450.742 244.042 450.94C244.242 451.08 244.431 450.76 244.242 450.62C243.932 450.397 243.576 450.239 243.198 450.155C242.819 450.072 242.427 450.064 242.045 450.134C241.664 450.204 241.302 450.349 240.983 450.56C240.664 450.771 240.396 451.044 240.194 451.36C240.058 451.55 240.384 451.73 240.531 451.54Z" fill="white"/>
<path d="M274.875 438.4H287.595C288.699 422.82 291.8 371.16 289.351 345.6C291.127 310.14 285.43 263.06 285.43 263.06H245.167C245.167 263.06 248.121 294.57 261.388 345.06C261.24 385.13 271.511 425.15 274.875 438.4Z" fill="#1243BA"/>
<path opacity="0.2" d="M274.875 438.4H287.595C288.699 422.82 291.8 371.16 289.351 345.6C291.127 310.14 285.43 263.06 285.43 263.06H245.167C245.167 263.06 248.121 294.57 261.388 345.06C261.24 385.13 271.511 425.15 274.875 438.4Z" fill="white"/>
<path opacity="0.2" d="M259.159 336.6C266.444 308.29 260.042 271.6 260.042 271.6L253.734 313.54L259.159 336.6Z" fill="black"/>
<path d="M273.361 438.1L274.297 442.7L288.888 442.64L288.899 438.04L273.361 438.1Z" fill="#263238"/>
<path d="M223.385 438.85H236.116C240.647 422.85 249.782 371.26 251.212 345.7C258.423 310.23 261.871 263.06 261.871 263.06H221.556C221.556 263.06 217.803 294.93 223.322 345.45C222.25 389.51 223.091 425.15 223.385 438.85Z" fill="#1243BA"/>
<path opacity="0.2" d="M223.385 438.85H236.116C240.647 422.85 249.782 371.26 251.212 345.7C258.423 310.23 261.871 263.06 261.871 263.06H221.556C221.556 263.06 217.803 294.93 223.322 345.45C222.25 389.51 223.091 425.15 223.385 438.85Z" fill="white"/>
<path d="M222.271 438.09L222.25 442.65H236.957L237.724 438.09H222.271Z" fill="#263238"/>
<path d="M290.696 268.85C262.733 279.07 217.183 271.66 217.183 271.66C217.488 264.37 217.771 253.09 217.929 240.8C217.929 237.5 218.003 234.13 218.024 230.74C218.024 224.24 218.024 217.68 218.024 211.49C218.024 210.99 218.024 210.49 218.024 210C218.024 207 217.94 204 217.877 201.24C217.877 200.9 217.877 200.56 217.877 200.24C217.75 194.77 217.54 189.93 217.277 186.06C216.762 178.77 220.936 171.98 228.515 170.77C230.817 170.4 233.309 170.07 235.874 169.77C236.484 169.7 237.114 169.65 237.745 169.59C245.14 168.899 252.572 168.642 260 168.82H261.051H261.619H262.554C265.708 168.94 268.799 169.17 271.522 169.51C277.703 170.27 283.19 174.91 283.295 180.85C283.39 186.29 283.947 197.78 284.757 210.74C285.072 215.64 285.419 220.74 285.808 225.85C287.217 246 289.119 265.35 290.696 268.85Z" fill="#263238"/>
<path opacity="0.2" d="M233.603 191.45C233.603 191.45 233.004 219.69 234.98 223.12C236.957 226.55 275.148 236.92 275.148 236.92C256.026 234.45 237.535 231.68 227.748 224.75L233.603 191.45Z" fill="black"/>
<path opacity="0.2" d="M276.41 245.22C254.155 250.22 228.126 243.8 217.929 240.8C217.929 237.5 218.003 234.13 218.024 230.74C233.698 241.77 276.41 245.22 276.41 245.22Z" fill="black"/>
<path d="M257.498 186.12L253.745 225.67L261.251 240.03L267.106 224.33L261.041 186.12H257.498Z" fill="#1243BA"/>
<path d="M258.392 177.62L254.344 183.33L259.106 188.56L263.858 181.82L258.392 177.62Z" fill="#1243BA"/>
<path d="M266.623 130.23C264.465 129.476 262.167 129.152 259.872 129.279C257.577 129.407 255.334 129.982 253.282 130.97C250.591 132.3 248.258 134.34 248.321 137.4C248.447 144.53 250.539 156.46 250.539 156.46L275.853 145.58C275.853 145.58 277.692 139.58 274.728 135.79C272.703 133.177 269.869 131.233 266.623 130.23Z" fill="#263238"/>
<path d="M257.172 129.63C257.172 129.63 253.745 127.82 250.318 131.19C247.448 134 248.699 143.19 248.699 143.19L257.172 129.63Z" fill="#263238"/>
<path d="M254.628 130.38C254.628 130.38 255.616 124.94 266.055 126.57C276.494 128.2 284.778 136.4 280.972 140.69C277.167 144.98 266.055 137.94 266.055 137.94L254.628 130.38Z" fill="#263238"/>
<path d="M261.598 165.33C261.602 165.357 261.602 165.384 261.598 165.41L260.01 169.35C259.825 170.159 259.716 170.983 259.685 171.81C259.668 172.478 259.7 173.146 259.779 173.81C260.578 175.13 260.704 177.95 257.372 177.62C253.167 177.21 246.018 170.92 245.934 169.12C248.51 163.85 250.959 157.26 251.19 151.99L255.395 157.43L261.598 165.33Z" fill="#FFC3BD"/>
<path d="M258.392 177.62C259.39 175.52 259.38 173 259.727 170.74C259.819 169.87 260.057 169.019 260.431 168.22C260.431 168.22 263.311 167.58 265.004 169.03C265.613 173.412 265.197 177.869 263.784 182.08L258.392 177.62Z" fill="#263238"/>
<path d="M242.413 169.23C242.413 169.23 244.746 164.96 247.942 164.44C248.331 169.59 250.539 173.68 258.392 177.62L253.745 184.17C247.269 179.14 243.653 174.17 242.413 169.23Z" fill="#263238"/>
<g opacity="0.2">
<path d="M261.556 165.42L259.968 169.36C257.456 167.95 254.985 165.2 254.66 162.46C254.439 160.46 255.553 158.79 256.384 158.77L261.556 165.42Z" fill="black"/>
</g>
<path d="M273.193 158C272.836 158.86 272.457 159.7 272.068 160.53C268.547 167.83 258.633 167.53 253.146 161.29C252.649 160.728 252.199 160.129 251.8 159.5C248.468 154.24 249.866 150.6 251.422 142.18C251.761 140.22 252.622 138.374 253.922 136.819C255.222 135.264 256.918 134.051 258.85 133.294C260.781 132.538 262.884 132.264 264.958 132.497C267.032 132.731 269.009 133.465 270.702 134.63C277.755 139.38 276.704 149.44 273.193 158Z" fill="#FFC3BD"/>
<path d="M256.531 145.4C256.531 145.4 256.478 152.4 259.369 153.4C262.26 154.4 264.415 152.07 267.59 154.98C268.228 154.689 268.937 154.566 269.642 154.626C270.347 154.686 271.022 154.926 271.595 155.32C273.508 156.69 273.193 157.51 273.193 157.51C273.193 157.51 272.457 168 262.365 166.78C252.273 165.56 251.054 156.15 251.748 151.15L253.745 144.94L256.531 145.4Z" fill="#263238"/>
<path d="M263.091 155.21C265.144 155.881 267.231 156.452 269.345 156.92C269.167 157.308 268.906 157.657 268.58 157.945C268.254 158.234 267.869 158.455 267.45 158.597C267.03 158.738 266.585 158.797 266.14 158.768C265.696 158.739 265.263 158.624 264.867 158.43C262.838 157.6 263.091 155.21 263.091 155.21Z" fill="white"/>
<path d="M271.448 133.83C267.506 130.67 259.033 129.24 255.133 132.83C251.233 136.42 251.212 142.89 251.212 142.89C251.165 143.589 251.398 144.278 251.863 144.82C251.961 144.916 252.046 145.024 252.116 145.14L256.51 145.82C256.857 144.1 257.561 140.97 258.812 140.82C261.125 140.52 259.548 138.1 260.053 136.74C261.661 132.32 274.286 135.34 275.737 142.1C275.758 142.13 275.411 137 271.448 133.83Z" fill="#263238"/>
<path d="M246.281 146.84C246.402 148.987 247.407 151.002 249.078 152.45C251.317 154.34 253.745 152.74 254.218 150.08C254.649 147.69 254.008 143.82 251.233 142.94C248.457 142.06 246.176 144.21 246.281 146.84Z" fill="#FFC3BD"/>
<path d="M264.373 147.33C264.205 147.98 264.436 148.58 264.878 148.69C265.319 148.8 265.813 148.35 265.981 147.69C266.15 147.03 265.908 146.44 265.466 146.34C265.025 146.24 264.531 146.68 264.415 147.34" fill="#263238"/>
<path d="M271.543 148.94C271.374 149.59 271.606 150.19 272.047 150.3C272.489 150.41 272.983 149.96 273.151 149.3C273.319 148.64 273.077 148.05 272.636 147.95C272.194 147.85 271.7 148.29 271.585 148.95" fill="#263238"/>
<path d="M274.602 147C274.541 146.985 274.486 146.954 274.442 146.912C274.398 146.87 274.366 146.818 274.349 146.76C274.297 146.526 274.194 146.305 274.047 146.111C273.901 145.916 273.714 145.753 273.498 145.63C273.043 145.419 272.523 145.376 272.037 145.51C271.946 145.536 271.848 145.527 271.764 145.486C271.68 145.445 271.616 145.375 271.585 145.29C271.56 145.204 271.57 145.112 271.613 145.033C271.656 144.953 271.728 144.892 271.816 144.86C272.488 144.682 273.205 144.743 273.834 145.03C274.133 145.196 274.394 145.418 274.6 145.683C274.806 145.948 274.953 146.25 275.033 146.57C275.059 146.656 275.048 146.749 275.003 146.827C274.957 146.906 274.881 146.965 274.791 146.99C274.73 147.008 274.665 147.012 274.602 147Z" fill="#263238"/>
<path d="M262.912 144.33C262.854 144.319 262.8 144.295 262.754 144.26C262.682 144.191 262.642 144.098 262.642 144C262.642 143.903 262.682 143.809 262.754 143.74C263.247 143.191 263.936 142.835 264.688 142.74C265.064 142.721 265.439 142.775 265.792 142.899C266.144 143.022 266.466 143.213 266.738 143.46C266.81 143.529 266.851 143.623 266.851 143.72C266.851 143.818 266.81 143.911 266.738 143.98C266.704 144.015 266.662 144.043 266.616 144.062C266.57 144.081 266.521 144.09 266.47 144.09C266.42 144.09 266.37 144.081 266.324 144.062C266.278 144.043 266.237 144.015 266.202 143.98C266.007 143.798 265.775 143.656 265.52 143.561C265.265 143.467 264.993 143.422 264.72 143.43C264.177 143.498 263.679 143.755 263.322 144.15C263.281 144.216 263.219 144.268 263.146 144.301C263.073 144.333 262.991 144.343 262.912 144.33Z" fill="#263238"/>
<path d="M269.093 147.51C269.304 149.246 269.746 150.95 270.407 152.58C271.364 154.66 267.59 153.88 267.59 153.88L269.093 147.51Z" fill="#ED847E"/>
<path d="M297.414 243.37C296.005 241.05 290.864 238.93 290.864 238.93C289.475 238.711 288.06 238.674 286.659 238.82H286.859C286.859 238.82 290.223 236.98 289.382 236.54C288.541 236.1 286.481 236.81 284.431 237.22C282.838 237.671 281.355 238.419 280.068 239.42C278.565 240.29 277.692 242.98 278.754 246.54C278.754 246.54 283.043 250.42 286.113 250.96C289.13 251.66 295.29 252.02 296.625 250.23C299.506 246.47 294.197 243.83 294.197 243.83C294.197 243.83 298.78 245.69 297.414 243.37Z" fill="#FFC3BD"/>
<path d="M278.386 237.71L277.188 245.54C268.452 245.09 259.832 244.34 251.159 243.24C246.817 242.7 242.486 242.04 238.102 241.24C235.905 240.85 233.708 240.4 231.459 239.87C229.068 239.348 226.716 238.68 224.415 237.87C223.774 237.63 223.101 237.36 222.365 237.02C221.472 236.599 220.624 236.096 219.832 235.52C219.175 235.045 218.575 234.502 218.045 233.9C217.642 233.425 217.289 232.912 216.994 232.37C216.794 232.007 216.618 231.633 216.468 231.25L216.247 230.59L216.195 230.37C215.97 229.505 215.808 228.626 215.711 227.74C215.417 225.11 215.364 223.02 215.312 220.84C215.312 216.55 215.312 212.4 215.511 208.24C215.806 199.93 216.436 191.75 217.319 183.5L234.076 184.89C233.834 188.89 233.445 192.98 233.172 197.02L232.184 209.13C231.869 213.13 231.522 217.13 231.343 221.07C231.269 222.44 231.206 223.85 231.196 225.07C232.478 225.64 234.024 226.2 235.569 226.71C237.461 227.33 239.427 227.91 241.414 228.49C245.388 229.64 249.477 230.68 253.577 231.72C261.756 233.73 270.102 235.73 278.386 237.71Z" fill="#263238"/>
<path d="M352.215 185.54C346.57 190.61 340.704 195.37 334.638 199.96C331.621 202.28 328.51 204.49 325.303 206.72C323.674 207.8 322.034 208.88 320.173 209.97C319.7 210.24 319.217 210.51 318.68 210.79C318.05 211.133 317.397 211.437 316.725 211.7C316.109 211.938 315.472 212.125 314.822 212.26L314.391 212.33L313.824 212.39C313.223 212.452 312.616 212.452 312.016 212.39H311.711L311.28 212.31C311.002 212.249 310.728 212.172 310.46 212.08H310.313L310.018 211.98C309.661 211.85 309.188 211.69 308.914 211.57L308.01 211.19C305.771 210.19 304.026 209.26 302.239 208.29C300.452 207.32 298.77 206.35 297.109 205.29C293.787 203.29 290.528 201.29 287.353 199.12L286.849 198.79L283.916 196.79C278.754 193.29 273.74 189.68 268.82 185.84L279.101 173.18C285.23 177.34 291.295 181.73 297.298 186.05C300.315 188.18 303.29 190.37 306.286 192.44C307.79 193.44 309.261 194.52 310.722 195.5C311.774 196.2 312.825 196.91 313.876 197.5C315.211 196.91 316.63 196.21 318.081 195.5C321.372 193.91 324.673 192.15 328.015 190.44C334.68 186.99 341.419 183.44 348.273 180.2L352.215 185.54Z" fill="#263238"/>
<path opacity="0.2" d="M286.849 198.7L283.916 196.7L283.012 183.05L286.849 198.7Z" fill="black"/>
<path d="M351.542 185.66C352.131 185.619 352.703 185.461 353.223 185.195C353.743 184.93 354.198 184.564 354.559 184.12C356.304 181.41 359.059 180.91 360.163 180.33C361.266 179.75 360.005 177.97 357.209 178.54C357.209 178.54 358.407 174.83 359.374 173.93C360.341 173.03 365.429 171.11 365.335 170.42C365.24 169.73 361.298 170.85 359.027 171.84C356.757 172.83 352.068 178.32 347.863 180.29C347.831 180.29 346.17 184.45 351.542 185.66Z" fill="#FFC3BD"/>
<path d="M151.469 181.33C152.384 187.92 153.067 194.54 153.677 201.16C154.003 204.46 154.245 207.78 154.539 211.07L154.928 216.01L155.306 220.41C155.36 220.924 155.473 221.43 155.643 221.92C155.832 222.58 156.063 223.32 156.316 224.05C156.81 225.52 157.367 227.05 157.945 228.56C159.059 231.63 160.3 234.7 161.477 237.81C163.895 244 166.345 250.25 168.626 256.55L161.162 260.07C157.251 254.43 153.635 248.68 150.155 242.79C148.4 239.86 146.749 236.87 145.099 233.79C144.279 232.26 143.49 230.7 142.713 229.08C142.324 228.26 141.935 227.44 141.556 226.53C141.081 225.467 140.695 224.37 140.4 223.25L140.253 222.65L140.19 222.28L140.053 221.6L139.811 220.29L139.37 217.77L138.529 212.77C138.024 209.45 137.477 206.15 137.046 202.84C136.121 196.22 135.301 189.61 134.744 182.96L151.469 181.33Z" fill="#1243BA"/>
<path d="M161.124 220.204L181.754 243.369C182.002 243.648 182.124 244.01 182.093 244.375C182.061 244.74 181.878 245.078 181.585 245.314L147.286 272.954C146.993 273.19 146.613 273.306 146.229 273.276C145.846 273.246 145.491 273.072 145.242 272.793L124.612 249.628C124.365 249.351 124.244 248.992 124.275 248.629C124.307 248.267 124.488 247.932 124.78 247.697L159.086 220.051C159.377 219.816 159.755 219.701 160.136 219.731C160.516 219.761 160.869 219.933 161.116 220.211L161.124 220.204Z" fill="#263238"/>
<path opacity="0.2" d="M161.124 220.204L181.754 243.369C182.002 243.648 182.124 244.01 182.093 244.375C182.061 244.74 181.878 245.078 181.585 245.314L147.286 272.954C146.993 273.19 146.613 273.306 146.229 273.276C145.846 273.246 145.491 273.072 145.242 272.793L124.612 249.628C124.365 249.351 124.244 248.992 124.275 248.629C124.307 248.267 124.488 247.932 124.78 247.697L159.086 220.051C159.377 219.816 159.755 219.701 160.136 219.731C160.516 219.761 160.869 219.933 161.116 220.211L161.124 220.204Z" fill="white"/>
<path d="M157.703 246.48C157.705 247.333 157.441 248.167 156.945 248.877C156.448 249.587 155.741 250.141 154.914 250.469C154.086 250.797 153.175 250.884 152.295 250.718C151.415 250.553 150.607 250.143 149.972 249.541C149.338 248.939 148.905 248.171 148.729 247.334C148.554 246.498 148.643 245.631 148.985 244.843C149.328 244.055 149.909 243.381 150.654 242.907C151.399 242.433 152.276 242.18 153.172 242.18C154.372 242.18 155.523 242.633 156.373 243.439C157.222 244.245 157.701 245.339 157.703 246.48Z" fill="#263238"/>
<path d="M130.36 130.55C130.36 130.55 122.403 130.46 120.468 139C118.46 147.9 117.872 144.4 113.593 148.64C109.315 152.88 113.993 158.64 106.613 161.82C106.613 161.82 112.763 167.5 124.726 165.27C136.689 163.04 135.017 171.14 150.46 169C149.785 167.709 149.515 166.26 149.683 164.827C149.85 163.394 150.449 162.038 151.406 160.92C154.77 157.1 152.268 154.31 152.405 150.25C152.542 146.19 153.646 137.36 147.78 133.56C141.914 129.76 136.742 131.42 136.742 131.42C134.713 130.669 132.529 130.371 130.36 130.55Z" fill="#263238"/>
<path d="M151.144 436.07L154.15 447.87H160.689L160.983 436.07H151.144Z" fill="#FF8B7B"/>
<path d="M179.653 456.22C179.306 452.37 177.551 451.22 175.333 451.1C173.115 450.98 164.915 448.37 164.915 448.37C164.915 448.37 163.212 445.92 161.761 445.43C160.31 444.94 158.818 446.38 158.818 446.38L154.718 445.91C154.718 445.91 153.488 444.15 152.615 445.69C151.312 448.07 151.469 454.69 151.564 456.22H179.653Z" fill="#1243BA"/>
<path d="M179.128 455.21H174.029L151.743 455.1C151.459 455.1 151.522 454.69 151.795 454.7H153.309V454.65C153.629 454.194 153.846 453.678 153.944 453.138C154.042 452.597 154.02 452.042 153.88 451.51C153.739 450.978 153.483 450.48 153.128 450.047C152.772 449.615 152.326 449.258 151.816 449C151.585 448.88 151.816 448.52 152.079 448.65C152.616 448.928 153.087 449.307 153.465 449.763C153.842 450.22 154.118 450.745 154.275 451.306C154.433 451.868 154.468 452.454 154.38 453.028C154.291 453.603 154.081 454.155 153.761 454.65H156.915L179.191 454.76C179.464 454.81 179.412 455.22 179.128 455.21Z" fill="black"/>
<path d="M163.685 450C164.841 448.7 166.534 448.34 167.764 449.31C167.963 449.47 168.237 449.12 168.037 448.96C166.618 447.84 164.652 448.33 163.338 449.79C163.149 450.01 163.485 450.21 163.685 450Z" fill="white"/>
<path d="M165.987 450.72C167.143 449.42 168.836 449.06 170.066 450.03C170.266 450.19 170.539 449.83 170.339 449.68C168.92 448.56 166.954 449.04 165.64 450.51C165.451 450.73 165.798 450.93 165.987 450.72Z" fill="white"/>
<path d="M168.363 451.41C169.53 450.11 171.222 449.74 172.452 450.72C172.652 450.88 172.915 450.52 172.726 450.37C171.306 449.25 169.341 449.73 168.027 451.2C167.827 451.41 168.174 451.62 168.363 451.41Z" fill="white"/>
<path d="M124.116 281.48C126.043 297.32 128.938 313.04 132.789 328.56C134.191 334.313 135.75 340.447 137.467 346.96C132.663 384.74 151.48 439.31 151.48 439.31L161.561 439.1C161.561 439.1 162.823 378.1 161.635 346.18C159.701 293.87 152.994 244 152.994 244L125.546 243.9C125.546 243.9 120.805 251.8 124.116 281.48Z" fill="#263238"/>
<path opacity="0.2" d="M124.116 281.48C126.043 297.32 128.938 313.04 132.789 328.56C138.56 307.63 128.111 262.98 128.111 262.98L124.116 281.48Z" fill="black"/>
<path d="M162.718 441.36L163.033 437.25H149.588L150.355 441.36H162.718Z" fill="#263238"/>
<path d="M109.346 436.07L112.363 447.87H118.891L119.196 436.07H109.346Z" fill="#FF8B7B"/>
<path d="M121.173 441.36L121.488 437.25H108.043L108.799 441.36H121.173Z" fill="#263238"/>
<path d="M137.866 456.22C137.509 452.37 135.764 451.22 133.546 451.1C131.328 450.98 123.117 448.37 123.117 448.37C123.117 448.37 121.414 445.92 119.964 445.43C118.513 444.94 117.01 446.38 117.01 446.38L112.91 445.91C112.91 445.91 111.68 444.15 110.807 445.69C109.493 448.07 109.651 454.69 109.756 456.22H137.866Z" fill="#1243BA"/>
<path d="M137.33 455.21H132.242L109.956 455.1C109.661 455.1 109.725 454.69 110.008 454.7H111.512V454.65C111.82 454.194 112.026 453.682 112.116 453.146C112.206 452.61 112.179 452.063 112.036 451.538C111.893 451.013 111.637 450.521 111.284 450.095C110.932 449.669 110.49 449.316 109.987 449.06C109.756 448.94 109.987 448.58 110.261 448.71C110.797 448.988 111.269 449.366 111.646 449.823C112.023 450.28 112.299 450.806 112.455 451.367C112.612 451.929 112.646 452.515 112.556 453.09C112.466 453.665 112.254 454.216 111.932 454.71H115.086L137.372 454.82C137.677 454.81 137.614 455.22 137.33 455.21Z" fill="black"/>
<path d="M121.887 450C123.044 448.7 124.736 448.34 125.977 449.31C126.177 449.47 126.439 449.12 126.24 448.96C124.831 447.84 122.855 448.33 121.551 449.79C121.351 450.01 121.698 450.21 121.887 450Z" fill="white"/>
<path d="M124.19 450.72C125.346 449.42 127.039 449.06 128.279 450.03C128.479 450.19 128.742 449.83 128.542 449.68C127.133 448.56 125.157 449.04 123.853 450.51C123.654 450.73 124 450.93 124.19 450.72Z" fill="white"/>
<path d="M126.576 451.41C127.732 450.11 129.425 449.74 130.655 450.72C130.855 450.88 131.128 450.52 130.928 450.37C129.509 449.25 127.543 449.73 126.229 451.2C126.04 451.41 126.387 451.62 126.576 451.41Z" fill="white"/>
<path d="M133.567 246.05C133.567 246.05 128.479 318.26 126.755 347C124.841 379.79 120.521 435.68 119.943 439.34H109.556C110.744 440.45 96.1845 390.28 102.061 349.44C96.5525 310.37 89.856 281.77 98.4867 244.98L133.567 246.05Z" fill="#263238"/>
<path d="M95.3225 247.79C117.22 254.67 154.013 252.41 154.013 247.64C154.013 234.21 149.01 219.1 150.355 210.35C160.71 203.46 152.615 197.23 153.509 187.02C153.819 183.253 152.636 179.511 150.193 176.532C147.749 173.552 144.222 171.55 140.305 170.92C138.445 170.62 136.5 170.32 134.597 170.09C134.208 170.03 133.819 169.99 133.441 169.95C128.36 169.4 123.247 169.169 118.135 169.26C116.263 169.26 114.329 169.26 112.3 169.32C110.271 169.38 108.316 169.43 106.445 169.56C104.798 169.67 103.194 170.109 101.738 170.847C100.281 171.585 99.0034 172.606 97.9883 173.845C96.9733 175.083 96.2432 176.51 95.8455 178.034C95.4478 179.558 95.3914 181.144 95.6799 182.69C97.342 191.653 98.3955 200.708 98.8337 209.8C98.9178 211.68 98.9914 213.49 99.0124 215.27C99.1467 221.495 98.8482 227.722 98.1188 233.91C98.1188 234.02 98.1188 234.14 98.1188 234.25C97.8035 236.71 97.4215 238.98 96.973 241.06C96.8363 241.72 96.6891 242.34 96.5314 242.95C96.2161 244.24 95.6904 246.51 95.3225 247.79Z" fill="#1243BA"/>
<path opacity="0.2" d="M154.013 247.64C154.013 252.41 117.22 254.64 95.333 247.79C95.6904 246.51 96.2161 244.24 96.5314 242.95C96.6891 242.34 96.8363 241.72 96.9729 241.06C97.4215 238.98 97.8034 236.71 98.1188 234.25C98.1188 234.14 98.1188 234.02 98.1188 233.91C98.853 227.722 99.162 221.496 99.0439 215.27C99.0439 213.49 98.9598 211.68 98.8652 209.8C98.739 207.05 98.5498 204.22 98.266 201.3C98.0978 199.42 97.898 197.5 97.6563 195.56C97.1517 191.4 96.4999 187.1 95.6799 182.69C95.3914 181.144 95.4478 179.558 95.8455 178.034C96.2432 176.51 96.9733 175.083 97.9883 173.845C99.0034 172.606 100.281 171.585 101.738 170.847C103.194 170.109 104.798 169.67 106.445 169.56C108.316 169.43 110.282 169.35 112.3 169.32C114.318 169.29 116.263 169.26 118.135 169.26C123.247 169.169 128.36 169.4 133.441 169.95C133.83 169.95 134.208 170.03 134.597 170.09C136.5 170.32 138.445 170.62 140.316 170.92C144.229 171.55 147.753 173.549 150.196 176.524C152.639 179.499 153.824 183.236 153.519 187C152.626 197.21 160.71 203.44 150.366 210.33C149.02 219.1 154.013 234.21 154.013 247.64Z" fill="white"/>
<path opacity="0.2" d="M109.199 185.65L98.2765 201.3C98.1083 199.42 97.9085 197.5 97.6667 195.56L109.199 185.65Z" fill="black"/>
<path d="M134.607 187.13C134.607 187.308 134.682 187.478 134.814 187.604C134.946 187.729 135.125 187.8 135.312 187.8C135.499 187.8 135.678 187.729 135.81 187.604C135.942 187.478 136.016 187.308 136.016 187.13C136.016 186.952 135.942 186.782 135.81 186.656C135.678 186.531 135.499 186.46 135.312 186.46C135.125 186.46 134.946 186.531 134.814 186.656C134.682 186.782 134.607 186.952 134.607 187.13Z" fill="#1243BA"/>
<path d="M135.743 193.8C136.132 193.8 136.447 193.5 136.447 193.13C136.447 192.76 136.132 192.46 135.743 192.46C135.354 192.46 135.039 192.76 135.039 193.13C135.039 193.5 135.354 193.8 135.743 193.8Z" fill="#1243BA"/>
<path d="M135.743 199.91C136.132 199.91 136.447 199.61 136.447 199.24C136.447 198.87 136.132 198.57 135.743 198.57C135.354 198.57 135.039 198.87 135.039 199.24C135.039 199.61 135.354 199.91 135.743 199.91Z" fill="#1243BA"/>
<path d="M118.145 169.26C123.328 177.93 135.522 183.12 135.522 183.12C137.173 179.23 136.657 173.01 134.608 170.12C134.219 170.06 133.83 170.02 133.451 169.98C128.371 169.419 123.258 169.179 118.145 169.26Z" fill="#FF8B7B"/>
<path d="M134.786 172.67C134.836 172.807 134.903 172.938 134.986 173.06C136.742 175.71 134.828 178.12 131.832 177.92C131.542 177.9 131.254 177.86 130.97 177.8C129.875 177.591 128.876 177.063 128.111 176.29C125.778 173.908 123.254 171.701 120.563 169.69C125.125 167.36 126.797 159.1 127.217 153.94L134.292 162.52L135.617 164.39C134.969 165.432 134.454 166.543 134.082 167.7C133.767 168.521 133.667 169.402 133.789 170.268C133.912 171.133 134.254 171.958 134.786 172.67Z" fill="#FF8B7B"/>
<path d="M121.173 169.26C121.173 169.26 116.968 168.26 113.593 169.26L120.468 180.5C124.095 177.99 128.237 181.25 135.522 183.12C129.494 179.838 124.531 175.043 121.173 169.26Z" fill="#1243BA"/>
<path d="M121.173 169.26C121.173 169.26 116.968 168.26 113.593 169.26L120.468 180.5C124.095 177.99 128.237 181.25 135.522 183.12C129.494 179.838 124.531 175.043 121.173 169.26Z" fill="#1243BA"/>
<path d="M133.735 169.77C133.735 169.77 137.94 169.04 140.368 170.92C141.251 173.821 141.912 176.778 142.345 179.77C142.345 179.77 138.297 177.85 135.575 183.12C135.522 183.12 136.889 174.73 133.735 169.77Z" fill="#1243BA"/>
<path d="M133.735 169.77C133.735 169.77 137.94 169.04 140.368 170.92C141.251 173.821 141.912 176.778 142.345 179.77C142.345 179.77 138.297 177.85 135.575 183.12C135.522 183.12 136.889 174.73 133.735 169.77Z" fill="#1243BA"/>
<g opacity="0.2">
<path d="M133.987 167.69C134.359 166.533 134.874 165.422 135.522 164.38L134.198 162.51L129.74 162.61C130.527 164.703 132.02 166.49 133.987 167.69Z" fill="black"/>
</g>
<path d="M125.819 144.74C125.115 153.22 124.631 156.74 128.363 161.69C133.987 169.06 144.889 167.99 148.19 159.88C151.165 152.58 151.827 139.94 143.837 135.46C135.848 130.98 126.534 136.26 125.819 144.74Z" fill="#FF8B7B"/>
<path d="M127.785 150.29C123.317 149.16 125.073 144.77 125.073 144.77L131.653 145.77C131.653 145.77 132.253 151.41 127.785 150.29Z" fill="#263238"/>
<path d="M145.824 136.25C145.824 136.25 145.709 140.94 139.664 141.19C133.619 141.44 134.145 149.94 127.375 148.59C120.605 147.24 123.958 139.25 126.849 137.12C129.74 134.99 136.889 128.62 145.824 136.25Z" fill="#263238"/>
<path d="M144.479 157.81C144.479 157.81 140.137 155.94 139.222 154.14C139.222 154.14 138.592 157.36 140.862 158.54C141.452 158.869 142.15 158.976 142.819 158.841C143.488 158.706 144.08 158.338 144.479 157.81Z" fill="white"/>
<path d="M140.484 148.52C140.389 149.21 140.684 149.81 141.157 149.87C141.63 149.93 142.092 149.43 142.208 148.75C142.324 148.07 142.019 147.46 141.546 147.4C141.073 147.34 140.61 147.84 140.494 148.52" fill="#263238"/>
<path d="M147.801 149.65C147.696 150.34 148 150.94 148.463 151.01C148.925 151.08 149.399 150.56 149.514 149.88C149.63 149.2 149.314 148.59 148.841 148.53C148.368 148.47 147.906 148.97 147.79 149.65" fill="#263238"/>
<path d="M148.621 148.54L150.418 148.29C150.418 148.29 149.367 149.46 148.621 148.54Z" fill="#263238"/>
<path d="M145.12 149.51C145.12 149.51 146.087 151.51 147.222 153.24C147.317 153.371 147.378 153.521 147.4 153.679C147.421 153.836 147.403 153.997 147.347 154.146C147.29 154.296 147.197 154.43 147.075 154.539C146.953 154.647 146.805 154.727 146.644 154.77C145.882 154.997 145.096 155.141 144.3 155.2L145.12 149.51Z" fill="#FF5652"/>
<path d="M121.824 150.14C122.045 150.885 122.43 151.576 122.954 152.167C123.478 152.759 124.128 153.237 124.862 153.57C126.755 154.36 128.016 152.44 127.785 150.29C127.564 148.35 126.324 145.6 124.295 145.75C122.266 145.9 121.141 148.18 121.824 150.14Z" fill="#FF8B7B"/>
<path d="M138.518 145.78C138.575 145.782 138.632 145.772 138.684 145.751C138.737 145.731 138.784 145.7 138.823 145.66C139.181 145.279 139.629 144.984 140.129 144.798C140.629 144.613 141.169 144.541 141.703 144.59C141.807 144.593 141.909 144.561 141.99 144.499C142.071 144.436 142.125 144.348 142.143 144.251C142.161 144.154 142.141 144.053 142.087 143.968C142.034 143.884 141.95 143.82 141.851 143.79C141.177 143.712 140.493 143.79 139.857 144.019C139.222 144.247 138.654 144.618 138.203 145.1C138.125 145.177 138.082 145.279 138.082 145.385C138.082 145.491 138.125 145.594 138.203 145.67C138.241 145.706 138.287 145.735 138.338 145.754C138.389 145.773 138.443 145.782 138.497 145.78" fill="#263238"/>
<path d="M151.154 147C151.262 147.008 151.37 146.98 151.459 146.92C151.546 146.85 151.602 146.75 151.614 146.642C151.625 146.534 151.593 146.426 151.522 146.34C151.111 145.828 150.577 145.418 149.963 145.144C149.35 144.871 148.677 144.743 148 144.77C147.944 144.774 147.889 144.788 147.839 144.812C147.789 144.837 147.744 144.871 147.708 144.912C147.672 144.953 147.644 145 147.628 145.051C147.611 145.103 147.606 145.157 147.611 145.21C147.617 145.264 147.633 145.316 147.66 145.364C147.686 145.412 147.723 145.454 147.767 145.489C147.811 145.523 147.862 145.549 147.916 145.565C147.971 145.58 148.028 145.585 148.084 145.58C148.62 145.565 149.152 145.673 149.634 145.894C150.117 146.115 150.537 146.443 150.86 146.85C150.895 146.893 150.939 146.929 150.99 146.955C151.041 146.981 151.097 146.996 151.154 147Z" fill="#263238"/>
<path d="M141.314 147.41L143.112 147.16C143.112 147.16 142.061 148.33 141.314 147.41Z" fill="#263238"/>
<path d="M86.6602 222.32C90.3291 227.92 94.4184 233.55 98.4237 239.1L92.2318 244.4C86.698 239.706 81.497 234.668 76.6629 229.32C74.1059 226.533 71.7526 223.583 69.6196 220.49C69.0624 219.66 68.5158 218.8 67.9901 217.84C67.3869 216.784 66.8736 215.684 66.4553 214.55C66.1888 213.807 65.9883 213.045 65.8561 212.27C65.6499 211.115 65.6499 209.935 65.8561 208.78C66.0457 207.747 66.3669 206.739 66.8127 205.78C67.1013 205.148 67.4241 204.53 67.7799 203.93C68.8868 202.126 70.1305 200.402 71.5013 198.77C72.7418 197.26 73.9822 195.85 75.2332 194.48C77.7772 191.78 80.3212 189.19 82.9599 186.71C88.2161 181.71 93.5564 177.05 99.3067 172.57L110.229 184.74L94.4605 198.2C91.8849 200.47 89.2989 202.69 86.8915 204.98C85.6721 206.1 84.4842 207.23 83.3909 208.35C82.4213 209.321 81.5089 210.343 80.6576 211.41V211.46C80.7312 211.65 80.8048 211.86 80.8889 212.07C81.1307 212.66 81.425 213.31 81.7404 213.98C83.2238 216.841 84.8661 219.625 86.6602 222.32Z" fill="#1243BA"/>
<path opacity="0.2" d="M86.6602 222.32C90.3291 227.92 94.4184 233.55 98.4237 239.1L92.2318 244.4C86.698 239.706 81.497 234.668 76.6629 229.32C74.1059 226.533 71.7526 223.583 69.6196 220.49C69.0624 219.66 68.5158 218.8 67.9901 217.84C67.3869 216.784 66.8736 215.684 66.4553 214.55C66.1888 213.807 65.9883 213.045 65.8561 212.27C65.6499 211.115 65.6499 209.935 65.8561 208.78C66.0457 207.747 66.3669 206.739 66.8127 205.78C67.1013 205.148 67.4241 204.53 67.7799 203.93C68.8868 202.126 70.1305 200.402 71.5013 198.77C72.7418 197.26 73.9822 195.85 75.2332 194.48C77.7772 191.78 80.3212 189.19 82.9599 186.71C88.2161 181.71 93.5564 177.05 99.3067 172.57L110.229 184.74L94.4605 198.2C91.8849 200.47 89.2989 202.69 86.8915 204.98C85.6721 206.1 84.4842 207.23 83.3909 208.35C82.4213 209.321 81.5089 210.343 80.6576 211.41V211.46C80.7312 211.65 80.8048 211.86 80.8889 212.07C81.1307 212.66 81.425 213.31 81.7404 213.98C83.2238 216.841 84.8661 219.625 86.6602 222.32Z" fill="white"/>
<path d="M97.9927 236.62C97.9927 236.62 104.973 239.08 106.045 240.38C107.117 241.68 100.274 249.02 97.6352 250.04C94.9966 251.06 96.3527 248.04 96.3527 248.04C96.3527 248.04 92.9151 248.81 91.3067 246.32C89.6983 243.83 91.5906 237 97.9927 236.62Z" fill="#FF8B7B"/>
<path d="M172.347 255.64C172.347 255.64 172.988 255.5 174.208 253.91C174.961 252.842 175.363 251.586 175.364 250.3L170.949 253.86C170.949 253.86 167.028 252.43 164.642 254.12C159.764 257.53 161.141 261.37 161.709 262.48C162.276 263.59 166.303 262.91 169.067 260.7C170.723 259.409 171.878 257.628 172.347 255.64Z" fill="#FF8B7B"/>
</svg>
